<svg width="19" height="19" viewBox="0 0 19 19" fill="none" xmlns="http://www.w3.org/2000/svg">
<path fill-rule="evenodd" clip-rule="evenodd" d="M7.49238 10.4687C7.38438 10.5669 7.24863 10.6157 7.11363 10.6157C6.96063 10.6157 6.80838 10.5534 6.69738 10.4319L5.33013 8.9319C5.12088 8.7024 5.13738 8.34614 5.36688 8.13764C5.59563 7.92689 5.95188 7.94414 6.16188 8.17363L7.52913 9.67365C7.73838 9.9039 7.72188 10.2594 7.49238 10.4687ZM16.2621 7.56989L14.0564 4.33064C13.7136 3.82364 13.1436 3.52064 12.5309 3.52064H6.39063C5.77863 3.52064 5.20863 3.82363 4.86663 4.32913L2.65338 7.56989C2.17263 8.27489 2.23788 9.21465 2.81313 9.8559L8.29262 15.8709C8.59037 16.1987 9.01487 16.3869 9.45737 16.3869C9.89987 16.3869 10.3244 16.1987 10.6214 15.8702L16.1016 9.8484C16.6791 9.2154 16.7451 8.27864 16.2621 7.56989Z" fill="white"/>
</svg>
