<svg width="25" height="26" viewBox="0 0 25 26" fill="none" xmlns="http://www.w3.org/2000/svg">
<path d="M9.0491 23.3098V19.732C9.04908 18.8219 9.79099 18.0825 10.7102 18.0764H14.0773C15.0009 18.0764 15.7496 18.8176 15.7496 19.732V23.3209C15.7494 24.0936 16.3723 24.7251 17.1526 24.7432H19.3973C21.635 24.7432 23.449 22.9473 23.449 20.732V10.554C23.4371 9.68248 23.0237 8.86409 22.3267 8.33172L14.6497 2.20937C13.3048 1.14335 11.3929 1.14335 10.048 2.20937L2.40471 8.34283C1.70498 8.87304 1.29097 9.69279 1.28235 10.5651V20.732C1.28235 22.9473 3.09637 24.7432 5.33408 24.7432H7.5788C8.37843 24.7432 9.02665 24.1014 9.02665 23.3098" stroke="white" stroke-width="1.5" stroke-linecap="round" stroke-linejoin="round"/>
</svg>
